<?xml version="1.0" encoding="UTF-8" standalone="no"?>
<!DOCTYPE svg PUBLIC "-//W3C//DTD SVG 1.1//EN" "http://www.w3.org/Graphics/SVG/1.1/DTD/svg11.dtd">
<svg width="100%" height="100%" viewBox="0 0 3276 1209" version="1.1" xmlns="http://www.w3.org/2000/svg"
     xml:space="preserve" style="fill-rule:evenodd;clip-rule:evenodd;stroke-linecap:round;stroke-linejoin:round;stroke-miterlimit:1.5;">
    <g transform="matrix(1,0,0,1,-33.3497,-33.3497)">
        <g id="Artboard1" transform="matrix(1.01033,0,0,0.996729,-97.0996,-66.7265)">
            <rect x="96.107" y="66.945" width="3318.44" height="2328.28" style="fill:none;"/>
            <g transform="matrix(0.859627,0,0,0.960491,2353.74,12.3626)">
                <rect x="93.548" y="93.84" width="1087.93" height="616.861" style="fill:none;stroke:black;stroke-width:4.56px;"/>
            </g>
            <g transform="matrix(0.859627,0,0,0.960491,50.7609,12.3626)">
                <rect x="93.548" y="93.84" width="1087.93" height="616.861" style="fill:none;stroke:black;stroke-width:4.56px;"/>
            </g>
            <g id="Green-Pantome-P-138-8-U" transform="matrix(0.980242,0,0,0.964849,40.6785,15.5306)">
                <rect x="104.249" y="102.414" width="131.184" height="135.096" style="fill:rgb(48,152,95);"/>
            </g>
            <g transform="matrix(0.989773,0,0,1.00328,42.8763,10.6738)">
                <text x="242.757px" y="196.134px" style="font-family:'Avenir-Book', 'Avenir';font-size:75px;">Business &amp; Strategy</text>
            </g>
            <g transform="matrix(0.989773,0,0,1.00328,-91.5613,236.33)">
                <text x="242.757px" y="134.323px" style="font-family:'Avenir-Book', 'Avenir';font-size:41.667px;">Business intent and priorities</text>
                <text x="242.757px" y="205.157px" style="font-family:'Avenir-Book', 'Avenir';font-size:41.667px;">•	<tspan x="317.757px " y="205.157px ">S</tspan>trategic Intent</text>
                <text x="242.757px" y="275.99px" style="font-family:'Avenir-Book', 'Avenir';font-size:41.667px;">•	<tspan x="317.757px " y="275.99px ">B</tspan>usiness Capability Models</text>
                <text x="242.757px" y="346.823px" style="font-family:'Avenir-Book', 'Avenir';font-size:41.667px;">•	<tspan x="317.757px " y="346.823px ">B</tspan>usiness Pr<tspan x="525.34px 550.048px " y="346.823px 346.823px ">oc</tspan>ess Models</text>
                <text x="242.757px" y="417.657px" style="font-family:'Avenir-Book', 'Avenir';font-size:41.667px;">•	<tspan x="317.757px " y="417.657px ">B</tspan>usiness Events and Ef<tspan x="740.757px 753.09px " y="417.657px 417.657px ">fe</tspan>ct</text>
            </g>
            <g transform="matrix(1.45062,0,0,0.960491,1655.49,628.551)">
                <rect x="93.548" y="93.84" width="1087.93" height="616.861" style="fill:none;stroke:black;stroke-width:3.37px;"/>
            </g>
            <g id="Pantome-P-127-4-U" transform="matrix(0.980242,0,0,0.964849,1700.69,631.719)">
                <rect x="104.249" y="102.414" width="131.184" height="135.096" style="fill:rgb(122,189,172);"/>
            </g>
            <g transform="matrix(0.989773,0,0,1.00328,1702.89,627.373)">
                <text x="242.757px" y="196.134px" style="font-family:'Avenir-Book', 'Avenir';font-size:75px;">Oversight</text>
            </g>
            <g transform="matrix(0.989773,0,0,1.00328,1568.45,852.519)">
                <text x="242.757px" y="134.323px" style="font-family:'Avenir-Book', 'Avenir';font-size:41.667px;">Gover<tspan x="357.715px 380.882px " y="134.323px 134.323px ">na</tspan>nce and Accountability</text>
                <text x="242.757px" y="205.157px" style="font-family:'Avenir-Book', 'Avenir';font-size:41.667px;">•	<tspan x="317.757px " y="205.157px ">P</tspan>rinciples &amp; Policies</text>
                <text x="242.757px" y="275.99px" style="font-family:'Avenir-Book', 'Avenir';font-size:41.667px;">•	<tspan x="317.757px " y="275.99px ">S</tspan>tandar<tspan x="459.715px 485.173px " y="275.99px 275.99px ">ds</tspan></text>
                <text x="242.757px" y="346.823px" style="font-family:'Avenir-Book', 'Avenir';font-size:41.667px;">•	<tspan x="317.757px " y="346.823px ">D</tspan>ecision Making Pr<tspan x="675.09px 699.798px " y="346.823px 346.823px ">oc</tspan>ess</text>
                <text x="242.757px" y="417.657px" style="font-family:'Avenir-Book', 'Avenir';font-size:41.667px;">•	<tspan x="317.757px " y="417.657px ">M</tspan>etrics &amp; Dashboar<tspan x="684.298px 709.757px " y="417.657px 417.657px ">ds</tspan></text>
            </g>
            <g transform="matrix(0.859627,0,0,0.960491,1202.25,12.3626)">
                <rect x="93.548" y="93.84" width="1087.93" height="616.861" style="fill:none;stroke:black;stroke-width:4.56px;"/>
            </g>
            <g id="Blue-Pantome-P-116-5-U" transform="matrix(0.980242,0,0,0.964849,1192.17,15.5306)">
                <rect x="104.249" y="102.414" width="131.184" height="135.096" style="fill:rgb(74,156,193);"/>
            </g>
            <g transform="matrix(0.989773,0,0,1.00328,1194.36,11.1838)">
                <text x="242.757px" y="196.134px" style="font-family:'Avenir-Book', 'Avenir';font-size:75px;">Portfolio Management</text>
            </g>
            <g transform="matrix(0.989773,0,0,1.00328,1059.93,236.33)">
                <text x="242.757px" y="134.323px" style="font-family:'Avenir-Book', 'Avenir';font-size:41.667px;">Pr<tspan x="279.757px 304.465px " y="134.323px 134.323px ">od</tspan>ucts and Platfor<tspan x="619.173px 654.673px " y="134.323px 134.323px ">ms</tspan></text>
                <text x="242.757px" y="205.157px" style="font-family:'Avenir-Book', 'Avenir';font-size:41.667px;">•	<tspan x="317.757px " y="205.157px ">P</tspan>latfor<tspan x="438.757px 474.257px " y="205.157px 205.157px ">m </tspan>Boundaries, Capabilities, and APIs</text>
                <text x="242.757px" y="275.99px" style="font-family:'Avenir-Book', 'Avenir';font-size:41.667px;">•	<tspan x="317.757px " y="275.99px ">M</tspan>aturity<tspan x="467.382px 478.965px " y="275.99px 275.99px ">, </tspan>Exter<tspan x="586.923px 610.09px " y="275.99px 275.99px ">na</tspan>lization, and Pr<tspan x="904.798px 929.507px " y="275.99px 275.99px ">od</tspan>uct</text>
                <text x="242.757px" y="346.823px" style="font-family:'Avenir-Book', 'Avenir';font-size:41.667px;">•	<tspan x="317.757px " y="346.823px ">C</tspan>ost Management and Investments</text>
                <text x="242.757px" y="417.657px" style="font-family:'Avenir-Book', 'Avenir';font-size:41.667px;">•	<tspan x="317.757px " y="417.657px ">S</tspan>LA, KPIs and other metrics</text>
            </g>
            <g id="Red-Pantome-P-48-8-U" transform="matrix(0.980242,0,0,0.964849,2343.65,15.5306)">
                <rect x="104.249" y="102.414" width="131.184" height="135.096" style="fill:rgb(218,75,79);"/>
            </g>
            <g transform="matrix(0.989773,0,0,1.00328,2345.85,11.1838)">
                <text x="242.757px" y="196.134px" style="font-family:'Avenir-Book', 'Avenir';font-size:75px;">Implementation</text>
            </g>
            <g transform="matrix(0.989773,0,0,1.00328,2211.41,236.33)">
                <text x="242.757px" y="134.323px" style="font-family:'Avenir-Book', 'Avenir';font-size:41.667px;">Systems and Artifacts</text>
                <text x="242.757px" y="205.157px" style="font-family:'Avenir-Book', 'Avenir';font-size:41.667px;">•	<tspan x="317.757px " y="205.157px ">S</tspan>our<tspan x="401.882px 421.965px " y="205.157px 205.157px ">ce</tspan> Code &amp; Repositories</text>
                <text x="242.757px" y="275.99px" style="font-family:'Avenir-Book', 'Avenir';font-size:41.667px;">•	<tspan x="317.757px " y="275.99px ">D</tspan>eployed Executables</text>
                <text x="242.757px" y="346.823px" style="font-family:'Avenir-Book', 'Avenir';font-size:41.667px;">•	<tspan x="317.757px " y="346.823px ">I</tspan>nfrastructur<tspan x="538.465px " y="346.823px ">e</tspan></text>
                <text x="242.757px" y="417.657px" style="font-family:'Avenir-Book', 'Avenir';font-size:41.667px;">•	<tspan x="317.757px " y="417.657px ">S</tspan>tandar<tspan x="459.715px 485.173px " y="417.657px 417.657px ">d </tspan>Operating Pr<tspan x="736.632px 761.34px " y="417.657px 417.657px ">oc</tspan>edur<tspan x="866.298px 889.465px " y="417.657px 417.657px ">es</tspan></text>
            </g>
            <g transform="matrix(0.989773,0,0,1.00328,30.8146,29.7887)">
                <path d="M1105.29,397.275L1105.29,408.161L1088.54,391.413L1105.29,374.665L1105.29,385.551L1205.78,385.551L1205.78,374.665L1222.53,391.413L1205.78,408.161L1205.78,397.275L1105.29,397.275Z" style="fill:url(#_Linear1);"/>
            </g>
            <g transform="matrix(0.989773,0,0,1.00328,1182.3,29.7887)">
                <path d="M1105.29,397.275L1105.29,408.161L1088.54,391.413L1105.29,374.665L1105.29,385.551L1205.78,385.551L1205.78,374.665L1222.53,391.413L1205.78,408.161L1205.78,397.275L1105.29,397.275Z" style="fill:url(#_Linear2);"/>
            </g>
            <g transform="matrix(1.45062,0,0,0.960491,-4.52526,628.551)">
                <rect x="93.548" y="93.84" width="1087.93" height="616.861" style="fill:none;stroke:black;stroke-width:3.37px;"/>
            </g>
            <g id="Pantome-P-179-9-U" transform="matrix(0.980242,0,0,0.964849,40.6785,631.719)">
                <rect x="104.249" y="102.414" width="131.184" height="135.096" style="fill:rgb(114,112,118);"/>
            </g>
            <g transform="matrix(0.989773,0,0,1.00328,42.8763,627.373)">
                <text x="242.757px" y="196.134px" style="font-family:'Avenir-Book', 'Avenir';font-size:75px;">Guidance</text>
            </g>
            <g transform="matrix(0.989773,0,0,1.00328,-91.5613,852.519)">
                <text x="242.757px" y="134.323px" style="font-family:'Avenir-Book', 'Avenir';font-size:41.667px;">Pr<tspan x="279.757px 304.465px " y="134.323px 134.323px ">oa</tspan>ctive education and evangelism</text>
                <text x="242.757px" y="205.157px" style="font-family:'Avenir-Book', 'Avenir';font-size:41.667px;">•	<tspan x="317.757px 346.34px 359.423px 379.507px " y="205.157px 205.157px 205.157px 205.157px ">Arch</tspan>itectural Decision Recor<tspan x="840.882px 866.34px " y="205.157px 205.157px ">ds</tspan></text>
                <text x="242.757px" y="275.99px" style="font-family:'Avenir-Book', 'Avenir';font-size:41.667px;">•	<tspan x="317.757px " y="275.99px ">B</tspan>est Practices &amp; Assets</text>
                <text x="242.757px" y="346.823px" style="font-family:'Avenir-Book', 'Avenir';font-size:41.667px;">•	<tspan x="317.757px " y="346.823px ">R</tspan>efer<tspan x="414.215px 437.382px " y="346.823px 346.823px ">en</tspan>ce Ar<tspan x="557.048px 577.132px " y="346.823px 346.823px ">ch</tspan>itectur<tspan x="717.465px 740.632px " y="346.823px 346.823px ">es</tspan></text>
                <text x="242.757px" y="417.657px" style="font-family:'Avenir-Book', 'Avenir';font-size:41.667px;">•	<tspan x="317.757px " y="417.657px ">F</tspan>rameworks &amp; T<tspan x="613.298px 638.007px " y="417.657px 417.657px ">oo</tspan>ls</text>
            </g>
        </g>
    </g>
    <defs>
        <linearGradient id="_Linear1" x1="0" y1="0" x2="1" y2="0" gradientUnits="userSpaceOnUse" gradientTransform="matrix(133.983,0,0,33.4958,1088.54,391.413)"><stop offset="0" style="stop-color:rgb(220,220,220);stop-opacity:1"/><stop offset="0.52" style="stop-color:rgb(169,169,169);stop-opacity:1"/><stop offset="1" style="stop-color:black;stop-opacity:1"/></linearGradient>
        <linearGradient id="_Linear2" x1="0" y1="0" x2="1" y2="0" gradientUnits="userSpaceOnUse" gradientTransform="matrix(133.983,0,0,33.4958,1088.54,391.413)"><stop offset="0" style="stop-color:rgb(220,220,220);stop-opacity:1"/><stop offset="0.52" style="stop-color:rgb(169,169,169);stop-opacity:1"/><stop offset="1" style="stop-color:black;stop-opacity:1"/></linearGradient>
    </defs>
</svg>
